<?xml version="1.0" standalone="no"?><!DOCTYPE svg PUBLIC "-//W3C//DTD SVG 1.1//EN" "http://www.w3.org/Graphics/SVG/1.1/DTD/svg11.dtd"><svg class="icon" height="512" viewBox="0 0 1024 1024" version="1.1" xmlns="http://www.w3.org/2000/svg"><path d="M773.953488 631.069767h-23.813953c-1.547907-35.72093-28.933953-59.534884-69.655814-59.534883h-29.767442c-39.293023 0-43.460465 22.861395-43.460465 32.744186v208.491163A45.603721 45.603721 0 0 0 650.35907 857.302326h29.767442a71.44186 71.44186 0 0 0 65.012093-47.627907H773.953488a11.906977 11.906977 0 0 0 11.906977-11.906977V642.976744a11.906977 11.906977 0 0 0-11.906977-11.906977zM370.426047 571.534884h-29.767442c-39.531163 0-65.250233 23.813953-66.56 59.534883H250.046512a11.906977 11.906977 0 0 0-11.906977 11.906977v154.790698a11.906977 11.906977 0 0 0 11.906977 11.906977h28.219535a66.56 66.56 0 0 0 62.511627 47.627907h29.767442A48.461395 48.461395 0 0 0 416.744186 812.770233V604.27907c0-7.739535-3.333953-32.744186-46.318139-32.744186z" fill="" /><path d="M512 202.418605a297.674419 297.674419 0 0 0-297.674419 297.674418 327.084651 327.084651 0 0 0 15.002791 95.255814h25.123721A307.795349 307.795349 0 0 1 238.139535 500.093023a277.551628 277.551628 0 0 1 273.860465-273.860465 277.551628 277.551628 0 0 1 273.860465 273.860465 307.795349 307.795349 0 0 1-16.431628 95.255814h25.123721A330.537674 330.537674 0 0 0 809.674419 500.093023a297.674419 297.674419 0 0 0-297.674419-297.674418z" fill="" /><path d="M512 142.883721a360.900465 360.900465 0 0 0-329.346977 500.093023h25.95721A334.228837 334.228837 0 1 1 845.395349 500.093023a335.538605 335.538605 0 0 1-34.053954 142.883721h26.076279A353.637209 353.637209 0 0 0 512 142.883721z" fill="" /></svg>