<?xml version="1.0" encoding="utf-8"?>
<!-- Designed by Vexels.com - 2016 All Rights Reserved - https://vexels.com/terms-and-conditions/  -->

<svg version="1.0" id="Capa_1" xmlns="http://www.w3.org/2000/svg" xmlns:xlink="http://www.w3.org/1999/xlink" x="0px" y="0px"
	 width="1199.53px" height="1199.529px" viewBox="0 0 1199.53 1199.529" enable-background="new 0 0 1199.53 1199.529"
	 xml:space="preserve">
<g>
	<path fill="#FFD224" d="M599.788,108.785c-270.74,0-491.003,220.269-491.003,491.008c0,270.712,220.263,490.951,491.003,490.951
		c270.714,0,490.957-220.239,490.957-490.951C1090.745,329.054,870.502,108.785,599.788,108.785z M599.788,1055.594
		c-251.33,0-455.8-204.471-455.8-455.801s204.47-455.802,455.8-455.802s455.799,204.472,455.799,455.802
		S851.118,1055.594,599.788,1055.594z"/>
	<g>
		<path fill="#F26D4E" d="M599.788,184.809c-42.319,0-84.124,6.394-124.26,19.012c-82.44,25.915-156.48,78.552-208.486,148.229
			c-53.798,72.131-82.235,157.801-82.235,247.743c0,16.381,0.971,32.968,2.885,49.265c1.022,8.882,8.537,15.572,17.478,15.572
			c0.376,0,0.755-0.019,1.129-0.046l0.968-0.084c4.681-0.565,8.859-2.926,11.766-6.643c2.894-3.699,4.174-8.299,3.61-12.879
			c-1.747-14.83-2.632-30.029-2.632-45.186c0-166.711,106.928-312.339,266.078-362.393c36.695-11.54,74.949-17.385,113.7-17.385
			c9.68,0,17.554-7.897,17.554-17.598C617.342,192.708,609.468,184.809,599.788,184.809z"/>
		<path fill="#F26D4E" d="M997.168,582.195c-9.707,0-17.603,7.888-17.603,17.598c0,152.801-91.1,290.151-232.107,349.905
			c-4.305,1.831-7.649,5.222-9.419,9.532c-1.793,4.377-1.761,9.19,0.044,13.418c2.722,6.578,9.089,10.825,16.223,10.825
			c2.281,0,4.512-0.429,6.878-1.376c154.047-65.292,253.586-215.353,253.586-382.305
			C1014.77,590.083,1006.874,582.195,997.168,582.195z"/>
	</g>
	<path fill="#0CB2D3" d="M599.788,488.852c-61.199,0-110.989,49.766-110.989,110.941c0,61.167,49.79,110.941,110.989,110.941
		c61.174,0,110.942-49.774,110.942-110.941C710.73,538.617,660.962,488.852,599.788,488.852z M599.788,675.575
		c-41.787,0-75.783-33.997-75.783-75.782c0-41.784,33.996-75.782,75.783-75.782c41.787,0,75.785,33.998,75.785,75.782
		C675.573,641.578,641.575,675.575,599.788,675.575z"/>
</g>
</svg>
